<svg xmlns="http://www.w3.org/2000/svg" viewBox="0 0 800 450" role="img" aria-label="Cartoon of the EUDR dossier: a field boundary with marked corner coordinates and a date is copied on to a dossier page that goes to a cargo ship at a port">
  <defs><style>.o{stroke:#1A1E1B;stroke-width:4;stroke-linejoin:round;stroke-linecap:round}</style></defs>
  <rect width="800" height="450" fill="#EAF3EC"/>
  <path d="M470 330 Q560 316 640 330 T800 330 L800 450 L470 450 Z" fill="#BFE0F5" class="o"/>
  <g fill="none" stroke="#3B82C4" stroke-width="4" stroke-linecap="round"><path d="M520 380 q14 -10 28 0 t28 0"/><path d="M700 400 q14 -10 28 0 t28 0"/><path d="M600 420 q14 -10 28 0 t28 0"/></g>
  <g class="o">
    <path d="M70 110 L250 90 L280 250 L110 300 Z" fill="#1F9A4D"/>
    <g stroke="#146134" stroke-width="3" fill="none"><path d="M105 150 L262 132"/><path d="M114 200 L270 182"/><path d="M122 250 L276 232"/></g>
    <circle cx="70" cy="110" r="9" fill="#FFFFFF"/><circle cx="250" cy="90" r="9" fill="#FFFFFF"/><circle cx="280" cy="250" r="9" fill="#FFFFFF"/><circle cx="110" cy="300" r="9" fill="#FFFFFF"/>
    <rect x="200" y="240" width="48" height="48" rx="8" fill="#FFFFFF"/><rect x="200" y="240" width="48" height="15" rx="6" fill="#D9534F"/><line x1="200" y1="255" x2="248" y2="255"/><circle cx="224" cy="271" r="6" fill="#1A1E1B"/>
  </g>
  <g fill="none" stroke="#146134" stroke-width="4" stroke-linecap="round" stroke-dasharray="8 8"><path d="M300 180 L340 180"/><path d="M500 220 C560 220 580 280 630 290"/></g>
  <g class="o">
    <rect x="350" y="60" width="150" height="220" rx="14" fill="#FFFFFF"/>
    <rect x="368" y="80" width="80" height="12" rx="6" fill="#146134"/>
    <path d="M394 153 L452 146 L461 198 L407 214 Z" fill="#A7D7B4"/>
    <circle cx="394" cy="153" r="4" fill="#1A1E1B" stroke="none"/><circle cx="452" cy="146" r="4" fill="#1A1E1B" stroke="none"/><circle cx="461" cy="198" r="4" fill="#1A1E1B" stroke="none"/><circle cx="407" cy="214" r="4" fill="#1A1E1B" stroke="none"/>
    <rect x="368" y="208" width="34" height="34" rx="8" fill="#FFFFFF"/><rect x="368" y="208" width="34" height="10" rx="6" fill="#D9534F"/><line x1="368" y1="218" x2="402" y2="218"/><circle cx="385" cy="230" r="4" fill="#1A1E1B"/>
    <rect x="414" y="214" width="66" height="8" rx="4" fill="#C9D3CC" stroke="none"/><rect x="414" y="232" width="50" height="8" rx="4" fill="#C9D3CC" stroke="none"/>
    <circle cx="474" cy="92" r="12" fill="#1F9A4D"/><path d="M464 92 L471 100 L485 84" fill="none" stroke="#FFFFFF" stroke-width="5"/>
  </g>
  <g class="o">
    <rect x="690" y="290" width="110" height="50" rx="8" fill="#C9D3CC"/>
    <rect x="740" y="120" width="16" height="170" fill="#8B5E3C"/>
    <line x1="700" y1="120" x2="800" y2="120" stroke-width="8"/>
    <line x1="720" y1="120" x2="720" y2="190" stroke-width="4"/>
    <rect x="704" y="186" width="32" height="24" rx="4" fill="#E8A33D"/>
    <path d="M540 300 L700 300 L680 360 L560 360 Z" fill="#3B82C4"/>
    <rect x="580" y="262" width="60" height="40" rx="8" fill="#FFFFFF"/>
    <rect x="644" y="272" width="40" height="30" rx="4" fill="#E8A33D"/>
    <rect x="600" y="234" width="12" height="30" rx="4" fill="#1A1E1B"/>
  </g>
</svg>
