<svg xmlns="http://www.w3.org/2000/svg" viewBox="0 0 800 450" role="img" aria-label="Cartoon of a regional outbreak alert: a wide region on a map holds one small farm, and an alert card above it carries a bell, a source line and a confidence band with the marker on high">
  <defs><style>.o{stroke:#1A1E1B;stroke-width:4;stroke-linejoin:round;stroke-linecap:round}</style></defs>
  <rect width="800" height="450" fill="#EAF3EC"/>
  <g class="o">
    <path d="M80 200 C60 140 140 90 220 110 C290 70 400 90 430 140 C500 130 520 210 470 260 C480 330 400 380 320 350 C260 400 150 390 130 320 C70 310 50 250 80 200 Z" fill="#A7D7B4"/>
    <g fill="#1F9A4D"><path d="M230 210 L280 206 L284 246 L234 250 Z"/><path d="M288 204 L330 200 L334 244 L290 246 Z"/><path d="M236 254 L330 248 L334 288 L240 292 Z"/></g>
    <rect x="252" y="176" width="22" height="20" rx="4" fill="#8B5E3C"/><path d="M248 178 L263 164 L278 178 Z" fill="#D9534F"/>
  </g>
  <g fill="none" stroke="#146134" stroke-width="4" stroke-linecap="round" stroke-dasharray="8 8"><path d="M330 100 L520 100"/></g>
  <g class="o">
    <rect x="500" y="40" width="260" height="210" rx="16" fill="#FFFFFF"/>
    <path d="M536 108 L536 84 A18 18 0 0 1 572 84 L572 108 L580 118 L528 118 Z" fill="#F5C842"/>
    <circle cx="554" cy="124" r="6" fill="#1A1E1B"/>
    <rect x="600" y="70" width="130" height="14" rx="7" fill="#146134"/>
    <rect x="600" y="96" width="90" height="10" rx="5" fill="#C9D3CC" stroke="none"/>
    <rect x="600" y="114" width="110" height="10" rx="5" fill="#C9D3CC" stroke="none"/>
    <rect x="530" y="160" width="66" height="26" rx="13" fill="#C9D3CC"/>
    <rect x="600" y="160" width="66" height="26" rx="13" fill="#E8A33D"/>
    <rect x="670" y="160" width="66" height="26" rx="13" fill="#D9534F"/>
    <path d="M703 214 L693 196 L713 196 Z" fill="#1A1E1B"/>
    <rect x="530" y="214" width="206" height="10" rx="5" fill="#C9D3CC" stroke="none"/>
  </g>
  <g class="o">
    <line x1="640" y1="420" x2="640" y2="300" stroke-width="5"/>
    <g fill="#F5C842"><ellipse cx="628" cy="316" rx="12" ry="8" transform="rotate(-30 628 316)"/><ellipse cx="652" cy="328" rx="12" ry="8" transform="rotate(30 652 328)"/><ellipse cx="628" cy="342" rx="12" ry="8" transform="rotate(-30 628 342)"/><ellipse cx="652" cy="354" rx="12" ry="8" transform="rotate(30 652 354)"/><ellipse cx="628" cy="368" rx="12" ry="8" transform="rotate(-30 628 368)"/></g>
    <g fill="#FFFFFF" stroke-width="3"><circle cx="612" cy="306" r="5"/><circle cx="668" cy="320" r="5"/><circle cx="612" cy="334" r="5"/></g>
  </g>
</svg>
